<?xml version="1.0" encoding="utf-8"?>
<!-- Generator: Adobe Illustrator 19.0.0, SVG Export Plug-In . SVG Version: 6.00 Build 0)  -->
<svg version="1.1" id="Layer_1" xmlns="http://www.w3.org/2000/svg" xmlns:xlink="http://www.w3.org/1999/xlink" x="0px" y="0px"
	 viewBox="29 -15 178 90" style="enable-background:new 29 -15 178 90;" xml:space="preserve">
<style type="text/css">
	.st0{fill:#243588;}
	.st1{fill:#E20613;}
	.st2{fill:#FFFFFF;}
</style>
<circle class="st0" cx="182.7" cy="20" r="3.7"/>
<path class="st0" d="M200.3,1.7l-0.9-0.2L97.8-14.7L96.1-15c-6.3-0.5-11.7,4.1-12.3,10.5c-0.1,0.7-0.1,1.4,0,2.1v0.3l0.3,3.7l98.9,7
	l1.3,0.1c5.6,0.7,9.9,5.5,10,11.2V44h1.5c0.3,0,0.7,0,0.9,0c4.2-0.2,7.7-3.4,8.1-7.7v-0.2l2.2-25c0,0,0,0,0-0.1c0,0,0,0,0-0.1
	C207.4,6.5,204.5,2.5,200.3,1.7z"/>
<path class="st1" d="M111.6,32.7c-1.5,0-2.6,1.1-2.8,2.7h5.4C114.1,33.9,113,32.7,111.6,32.7z M64.6,29h-3.3v4.7h3.3
	c1.5,0,2.6-0.6,2.6-2.3S66,29,64.6,29z M77.6,42.8C77.6,42.8,77.6,42.7,77.6,42.8C77.6,42.7,77.6,42.8,77.6,42.8z M194.1,20
	c-0.1-5.8-4.4-10.6-10-11.3l-1.3-0.1L84,1.4L46.5-1.3l-2.3-0.2C35.8-1.4,29,5.5,29,13.9c0,0.9,0.1,1.8,0.3,2.7l0.1,0.4l8.5,48.4
	L38,66c1.1,5.1,5.7,9,11.1,9c0.3,0,0.6,0,0.9-0.1h0.4L183,65c0.4,0,0.9,0,1.3-0.1c5.6-0.7,9.9-5.4,9.9-11.2L194.1,20L194.1,20
	L194.1,20z M65.3,37.4h-3.9v5.4c0,0.3-0.3,0.7-0.7,0.7h-3.5c-0.4,0-0.7-0.3-0.7-0.7V25.9c0-0.3,0.3-0.7,0.6-0.7h8.2
	c3.4,0,6.7,1.5,6.7,5.9C71.9,35.6,69.4,37.4,65.3,37.4z M82.6,30.7v2.4c0,0.3-0.3,0.7-0.8,0.7c-0.1,0-0.1,0-0.2,0
	c-0.3,0-0.5-0.1-0.8-0.1c-2.1,0-3.3,1.5-3.3,3.2v5.9c0,0,0,0,0,0.1v0.2c0,0.1-0.1,0.1-0.1,0.2c0,0,0,0.1-0.1,0.1
	c-0.1,0.1-0.1,0.1-0.2,0.1c0,0-0.1,0-0.1,0.1c-0.1,0-0.2,0.1-0.3,0.1h-2.9c-0.3,0-0.7-0.3-0.7-0.8V30.8c0-0.3,0.3-0.7,0.7-0.7h3
	c0.3,0.1,0.7,0.3,0.7,0.8v1.5h0.1c0.7-1.7,2.1-2.6,4-2.6c0.1,0,0.1,0,0.2,0c0.1,0,0.2,0,0.3,0c0.3,0.1,0.5,0.3,0.6,0.7L82.6,30.7z
	 M88.4,30.9v11.8c0,0.3-0.3,0.7-0.7,0.7h-3c-0.3,0-0.7-0.3-0.7-0.7V30.8c0-0.3,0.3-0.7,0.7-0.7h3.1C88.1,30.2,88.3,30.5,88.4,30.9z
	 M88.4,25.9v1.8c0,0.3-0.3,0.7-0.7,0.7h-3c-0.3,0-0.7-0.3-0.7-0.7v-1.9c0-0.3,0.3-0.7,0.7-0.7h3.1c0.3,0.1,0.6,0.3,0.7,0.7v0.1
	C88.5,25.9,88.4,25.9,88.4,25.9z M103.3,39.1c0,0.1,0,0.2-0.1,0.3c-0.8,2.9-3.3,4.5-6.5,4.5c-4,0-7-2.7-7-6.9c0-4.3,2.7-7.3,7-7.3
	c3,0,5.7,1.4,6.4,4.3c0,0.1,0,0.1,0.1,0.2v0.1c0,0.4-0.3,0.8-0.7,0.8h-2.9c-0.3,0-0.6-0.3-0.7-0.5c-0.3-0.9-1.1-1.4-2.1-1.4
	c-2.5,0-2.8,2.1-2.8,3.9c0,1.7,0.8,3.5,2.6,3.5c1.3,0,2.1-0.6,2.4-1.6c0.1-0.3,0.3-0.6,0.7-0.6h3C103,38.3,103.3,38.6,103.3,39.1z
	 M118.6,37.3c-0.1,0.3-0.3,0.7-0.7,0.7h-9.2c0.1,1.8,1.1,3,3,3c0.9,0,1.8-0.3,2.3-1.1c0,0,0,0,0-0.1c0.1-0.2,0.3-0.3,0.5-0.3h2.9
	c0.3,0.1,0.7,0.3,0.7,0.8c0,0.1,0,0.2-0.1,0.3c0,0,0,0,0,0.1c-1.1,2.3-3.7,3.3-6.3,3.3c-4.4,0-7.3-2.7-7.3-7.1c0-4.1,3.3-7,7.2-7
	C116.1,29.9,118.5,33.1,118.6,37.3C118.6,37.1,118.6,37.2,118.6,37.3z M139.4,31.2L135.7,43c0-0.1,0-0.2,0-0.3
	c0,0.4-0.3,0.7-0.7,0.8h-3.4c-0.3,0-0.6-0.3-0.7-0.5v-0.1l-2-8.2h-0.1l-2,8.2V43c-0.1,0.3-0.3,0.5-0.7,0.5h-3.4
	c-0.3,0-0.6-0.3-0.7-0.5l-3.7-11.7l-0.1-0.2c0-0.1,0-0.1,0-0.2c0-0.4,0.3-0.7,0.7-0.8h3.1c0.3,0,0.5,0.2,0.6,0.4l0.1,0.2l2.1,8h0.1
	l1.8-8v-0.2c0.1-0.3,0.3-0.5,0.6-0.5h3.1c0.3,0,0.5,0.3,0.6,0.6v0.1l1.8,8.1h0.1l2.1-8l0.1-0.2c0.1-0.3,0.3-0.4,0.6-0.4h3.1
	c0.3,0.1,0.7,0.3,0.7,0.8C139.5,31,139.5,31.1,139.4,31.2L139.4,31.2z M145.1,30.9v11.8c0,0.3-0.3,0.7-0.7,0.7h-3
	c-0.3,0-0.7-0.3-0.7-0.7V30.8c0-0.3,0.3-0.7,0.7-0.7h3.1C144.7,30.2,145,30.5,145.1,30.9z M145.1,25.9v1.8c0,0.3-0.3,0.7-0.7,0.7h-3
	c-0.3,0-0.7-0.3-0.7-0.7v-1.9c0-0.3,0.3-0.7,0.7-0.7h3.1c0.3,0.1,0.6,0.3,0.7,0.7v0.1C145.2,25.9,145.1,25.9,145.1,25.9z
	 M152.7,43.9c-2.8,0-5.7-0.9-6.4-3.8c0-0.1,0-0.2-0.1-0.3c0-0.4,0.3-0.8,0.8-0.8h2.9c0.3,0,0.6,0.3,0.7,0.6c0.1,0.4,0.3,0.7,0.7,0.9
	c0.4,0.3,1,0.4,1.6,0.4c0.9,0,2.1-0.3,2.1-1.5c0-1-1.4-1.2-2.1-1.5c-2.7-0.7-6.2-0.8-6.2-4.4c0-3.3,3.5-4.1,6.1-4.1
	c2.7,0,5.3,0.7,6,3.3c0,0.1,0,0.2,0.1,0.3c0,0,0,0,0,0.1c0,0.4-0.3,0.8-0.8,0.8h-2.5c-0.3,0-0.6-0.3-0.7-0.5
	c-0.1-0.3-0.3-0.4-0.5-0.6c-0.3-0.3-0.9-0.3-1.4-0.3c-0.7,0-1.9,0.1-1.9,1c0,1.3,2.9,1.5,5,2c2.7,0.5,3.4,2.5,3.4,3.6
	C159.1,42.7,155.8,43.9,152.7,43.9z M174.4,37.3c-0.1,0.3-0.3,0.7-0.7,0.7h-9.1c0.1,1.8,1.1,3,3,3c0.9,0,1.8-0.3,2.3-1.1
	c0,0,0,0,0-0.1c0.1-0.2,0.3-0.3,0.5-0.3h2.9c0.3,0.1,0.7,0.3,0.7,0.8c0,0.1,0,0.2-0.1,0.3c0,0,0,0,0,0.1c-1.1,2.3-3.7,3.3-6.3,3.3
	c-4.4,0-7.3-2.7-7.3-7.1c0-4.1,3.3-7,7.2-7C172,29.9,174.4,33.1,174.4,37.3C174.4,37.1,174.4,37.2,174.4,37.3L174.4,37.3z
	 M182.7,23.7c-2.1,0-3.7-1.6-3.7-3.7s1.6-3.7,3.7-3.7s3.7,1.6,3.7,3.7S184.8,23.7,182.7,23.7z M167.5,32.7c-1.5,0-2.6,1.1-2.8,2.7
	h5.4C169.9,33.9,168.9,32.7,167.5,32.7L167.5,32.7z"/>
<path class="st2" d="M155.8,35.5c-2-0.4-5-0.7-5-2c0-0.9,1.2-1,1.9-1c0.5,0,1,0.1,1.4,0.3c0.3,0.2,0.4,0.3,0.5,0.6s0.3,0.5,0.7,0.5
	h2.5c0.4,0,0.8-0.3,0.8-0.8c0,0,0,0,0-0.1s0-0.2-0.1-0.3c-0.7-2.6-3.4-3.3-6-3.3c-2.7,0-6.1,0.9-6.1,4.1c0,3.6,3.4,3.7,6.2,4.4
	c0.8,0.2,2.1,0.3,2.1,1.5c0,1-1.2,1.5-2.1,1.5c-0.6,0-1.2-0.2-1.6-0.4c-0.3-0.3-0.5-0.5-0.7-0.9c-0.1-0.3-0.3-0.6-0.7-0.6h-2.8
	c-0.4,0-0.8,0.3-0.8,0.8c0,0.1,0,0.2,0.1,0.3c0.7,2.9,3.6,3.8,6.4,3.8c3,0,6.4-1.2,6.4-4.8C159.1,38,158.5,36.1,155.8,35.5z
	 M82,29.9c-0.1,0-0.2,0-0.3,0c-0.1,0-0.1,0-0.2,0c-1.9,0-3.3,0.9-4,2.6h-0.1v-1.6c0-0.3-0.3-0.7-0.7-0.8h-2.9
	c-0.3,0.1-0.7,0.3-0.7,0.7v12c0,0.4,0.3,0.7,0.7,0.8h2.9c0.1,0,0.2,0,0.3-0.1c0,0,0.1,0,0.1-0.1c0.1,0,0.1-0.1,0.2-0.1
	c0,0,0-0.1,0.1-0.1c0,0,0.1-0.1,0.1-0.2v-0.1c0,0,0,0,0-0.1c0,0,0,0,0-0.1c0,0,0,0,0,0.1v-5.9c0-1.7,1.1-3.2,3.3-3.2
	c0.3,0,0.5,0,0.8,0.1c0.1,0,0.1,0,0.2,0c0.4,0,0.7-0.3,0.8-0.7v-2.6C82.6,30.2,82.3,30,82,29.9z M87.7,25.1h-3.1
	c-0.3,0.1-0.7,0.3-0.7,0.7v2c0,0.3,0.3,0.7,0.7,0.7h3.1c0.3,0,0.7-0.3,0.7-0.7v-1.9C88.4,25.4,88.1,25.2,87.7,25.1z M87.7,30.1h-3.1
	c-0.3,0.1-0.7,0.3-0.7,0.7v12c0,0.3,0.3,0.7,0.7,0.7h3.1c0.3,0,0.7-0.3,0.7-0.7v-12C88.4,30.5,88.1,30.1,87.7,30.1z M144.4,25.1
	h-3.1c-0.3,0.1-0.7,0.3-0.7,0.7v2c0,0.3,0.3,0.7,0.7,0.7h3.1c0.3,0,0.7-0.3,0.7-0.7v-1.9C145.1,25.4,144.8,25.2,144.4,25.1z
	 M144.4,30.1h-3.1c-0.3,0.1-0.7,0.3-0.7,0.7v12c0,0.3,0.3,0.7,0.7,0.7h3.1c0.3,0,0.7-0.3,0.7-0.7v-12
	C145.1,30.5,144.8,30.1,144.4,30.1z M102.6,38.3h-2.9c-0.3,0-0.6,0.3-0.7,0.6c-0.3,1-1.1,1.6-2.4,1.6c-1.9,0-2.6-1.8-2.6-3.5
	c0-1.9,0.3-3.9,2.8-3.9c0.9,0,1.8,0.5,2.1,1.4c0.1,0.3,0.3,0.5,0.7,0.5h2.9c0.4,0,0.7-0.3,0.7-0.8v-0.1c0-0.1,0-0.1-0.1-0.2
	c-0.8-2.8-3.4-4.3-6.4-4.3c-4.3,0-7,3-7,7.3c0,4.1,3,6.9,7,6.9c3.2,0,5.7-1.6,6.5-4.5c0-0.1,0.1-0.2,0.1-0.3c0,0,0,0,0-0.1
	C103.3,38.6,103,38.3,102.6,38.3z M111.6,29.7c-3.9,0-7.2,2.9-7.2,7c0,4.5,3,7.1,7.3,7.1c2.7,0,5.1-1,6.3-3.3c0,0,0,0,0-0.1
	s0.1-0.2,0.1-0.3c0-0.3-0.3-0.7-0.7-0.8h-2.8c-0.2,0-0.4,0.2-0.5,0.3c0,0,0,0,0,0.1c-0.5,0.8-1.4,1.1-2.3,1.1c-1.9,0-2.9-1.2-3-3
	h9.1c0.3,0,0.7-0.3,0.7-0.7c0-0.1,0-0.1,0-0.2C118.5,32.9,116.1,29.7,111.6,29.7z M108.7,35.5c0.3-1.6,1.3-2.7,2.8-2.7
	s2.5,1.2,2.6,2.7H108.7z M167.5,29.7c-3.9,0-7.2,2.9-7.2,7c0,4.5,3,7.1,7.3,7.1c2.7,0,5.1-1,6.3-3.3c0,0,0,0,0-0.1s0.1-0.2,0.1-0.3
	c0-0.3-0.3-0.7-0.7-0.8h-3c-0.2,0-0.4,0.2-0.5,0.3c0,0,0,0,0,0.1c-0.5,0.8-1.4,1.1-2.3,1.1c-1.9,0-2.9-1.2-3-3h9.1
	c0.3,0,0.7-0.3,0.7-0.7c0-0.1,0-0.1,0-0.2C174.3,32.9,171.9,29.7,167.5,29.7z M164.6,35.5c0.3-1.6,1.3-2.7,2.8-2.7s2.5,1.2,2.6,2.7
	H164.6L164.6,35.5z M138.8,30.1h-3.1c-0.3,0-0.5,0.3-0.6,0.4l-0.1,0.2l-2.1,8h-0.1l-1.8-8.1v-0.1c-0.1-0.3-0.3-0.5-0.6-0.6h-3.1
	c-0.3,0-0.5,0.3-0.6,0.5v0.2l-1.8,8h-0.1l-2.1-8l-0.1-0.2c-0.1-0.3-0.3-0.4-0.6-0.4h-3.1c-0.3,0.1-0.7,0.3-0.7,0.8
	c0,0.1,0,0.1,0,0.2l0.1,0.2l3.7,11.7c0-0.1,0-0.2,0-0.2c0,0.1,0,0.2,0,0.2c0.1,0.3,0.3,0.5,0.7,0.5h3.4c0.3,0,0.6-0.3,0.7-0.5v-0.1
	l2-8.2h0.1l2,8.2v0.1c0.1,0.3,0.3,0.5,0.7,0.5h3.4c0.4,0,0.7-0.3,0.7-0.8c0,0.1,0,0.2,0,0.3l3.7-11.8c0-0.1,0.1-0.2,0.1-0.3
	C139.5,30.5,139.3,30.1,138.8,30.1z M122.3,42.7c0,0.1,0,0.2,0,0.2S122.3,42.8,122.3,42.7z M65.3,25.2h-8.2
	c-0.3,0.1-0.6,0.3-0.6,0.7V43c0,0.4,0.3,0.7,0.7,0.7h3.4c0.3,0,0.7-0.3,0.7-0.7v-5.4h3.9c4,0,6.7-1.8,6.7-6.3
	C71.9,26.7,68.8,25.2,65.3,25.2z M64.6,33.7h-3.3V29h3.3c1.5,0,2.6,0.7,2.6,2.4C67.1,33.1,66.1,33.7,64.6,33.7z"/>
</svg>
